<?xml version="1.0" encoding="UTF-8"?>
<svg width="272px" height="58px" viewBox="0 0 272 58" version="1.1" xmlns="http://www.w3.org/2000/svg" xmlns:xlink="http://www.w3.org/1999/xlink">
    <!-- Generator: Sketch 55.2 (78181) - https://sketchapp.com -->
    <title>svg/closedloop_light--orange</title>
    <desc>Created with Sketch.</desc>
    <defs>
        <path d="M81.4514991,45.6819983 C78.1234825,45.6819983 75.5475082,44.714008 73.7234991,42.7779983 C71.89949,40.8419887 70.9394996,38.1300158 70.8434991,34.6419983 L70.7954991,32.7219983 L70.8434991,30.8019983 C70.9394996,27.3139809 71.89949,24.602008 73.7234991,22.6659983 C75.5475082,20.7299887 78.1234825,19.7619983 81.4514991,19.7619983 C83.5635097,19.7619983 85.3634917,20.1379946 86.8514991,20.8899983 C88.3395066,21.6420021 89.4514954,22.6019925 90.1874991,23.7699983 C90.9235028,24.9380042 91.3234988,26.1459921 91.3874991,27.3939983 C91.4194993,27.6819998 91.3235002,27.9299973 91.0994991,28.1379983 C90.875498,28.3459994 90.6195006,28.4499983 90.3314991,28.4499983 L89.6594991,28.4499983 C89.3394975,28.4499983 89.1074998,28.3779991 88.9634991,28.2339983 C88.8194984,28.0899976 88.6674999,27.8260003 88.5074991,27.4419983 C87.8674959,25.6819895 86.9715049,24.4260021 85.8194991,23.6739983 C84.6674934,22.9219946 83.2115079,22.5459983 81.4514991,22.5459983 C79.1474876,22.5459983 77.3155059,23.2419914 75.9554991,24.6339983 C74.5954923,26.0260053 73.8674996,28.1619839 73.7714991,31.0419983 L73.7234991,32.7219983 L73.7714991,34.4019983 C73.8674996,37.2820127 74.5954923,39.4179914 75.9554991,40.8099983 C77.3155059,42.2020053 79.1474876,42.8979983 81.4514991,42.8979983 C83.2115079,42.8979983 84.6674934,42.5220021 85.8194991,41.7699983 C86.9715049,41.0179946 87.8674959,39.7619983 88.5074991,38.0019983 C88.6674999,37.6179964 88.8194984,37.3539991 88.9634991,37.2099983 C89.1074998,37.0659976 89.3394975,36.9939983 89.6594991,36.9939983 L90.3314991,36.9939983 C90.6195006,36.9939983 90.875498,37.0979973 91.0994991,37.3059983 C91.3235002,37.5139994 91.4194993,37.7619983 91.3874991,38.0499983 C91.3234988,39.2980046 90.9235028,40.5059925 90.1874991,41.6739983 C89.4514954,42.8420042 88.3395066,43.8019946 86.8514991,44.5539983 C85.3634917,45.3060021 83.5635097,45.6819983 81.4514991,45.6819983 Z M96.1874991,45.2019983 C95.8674975,45.2019983 95.6115001,45.1059993 95.4194991,44.9139983 C95.2274982,44.7219974 95.1314991,44.4659999 95.1314991,44.1459983 L95.1314991,12.1779983 C95.1314991,11.8579967 95.2274982,11.6019993 95.4194991,11.4099983 C95.6115001,11.2179974 95.8674975,11.1219983 96.1874991,11.1219983 L97.0034991,11.1219983 C97.3235007,11.1219983 97.5794982,11.2179974 97.7714991,11.4099983 C97.9635001,11.6019993 98.0594991,11.8579967 98.0594991,12.1779983 L98.0594991,44.1459983 C98.0594991,44.4659999 97.9635001,44.7219974 97.7714991,44.9139983 C97.5794982,45.1059993 97.3235007,45.2019983 97.0034991,45.2019983 L96.1874991,45.2019983 Z M112.087499,45.6819983 C108.759482,45.6819983 106.175508,44.6660085 104.335499,42.6339983 C102.49549,40.6019882 101.5275,37.9700145 101.431499,34.7379983 L101.383499,32.7219983 L101.431499,30.7059983 C101.5275,27.4739822 102.49549,24.8420085 104.335499,22.8099983 C106.175508,20.7779882 108.759482,19.7619983 112.087499,19.7619983 C115.415516,19.7619983 117.99949,20.7779882 119.839499,22.8099983 C121.679508,24.8420085 122.647499,27.4739822 122.743499,30.7059983 C122.775499,31.0259999 122.791499,31.6979932 122.791499,32.7219983 C122.791499,33.7460035 122.775499,34.4179967 122.743499,34.7379983 C122.647499,37.9700145 121.679508,40.6019882 119.839499,42.6339983 C117.99949,44.6660085 115.415516,45.6819983 112.087499,45.6819983 Z M112.087499,42.8979983 C114.35951,42.8979983 116.191492,42.1700056 117.583499,40.7139983 C118.975506,39.2579911 119.719499,37.1860118 119.815499,34.4979983 C119.847499,34.1779967 119.863499,33.5860027 119.863499,32.7219983 C119.863499,31.857994 119.847499,31.2659999 119.815499,30.9459983 C119.719499,28.2579849 118.975506,26.1860056 117.583499,24.7299983 C116.191492,23.2739911 114.35951,22.5459983 112.087499,22.5459983 C109.815488,22.5459983 107.983506,23.2739911 106.591499,24.7299983 C105.199492,26.1860056 104.4555,28.2579849 104.359499,30.9459983 L104.311499,32.7219983 L104.359499,34.4979983 C104.4555,37.1860118 105.199492,39.2579911 106.591499,40.7139983 C107.983506,42.1700056 109.815488,42.8979983 112.087499,42.8979983 Z M133.987499,45.6819983 C131.907489,45.6819983 130.155506,45.3300019 128.731499,44.6259983 C127.307492,43.9219948 126.235503,43.1220028 125.515499,42.2259983 C124.795496,41.3299939 124.435499,40.6100011 124.435499,40.0659983 C124.435499,39.7779969 124.547498,39.5459992 124.771499,39.3699983 C124.9955,39.1939975 125.235498,39.1059983 125.491499,39.1059983 L126.211499,39.1059983 C126.435499,39.1059983 126.619498,39.1459979 126.763499,39.2259983 C126.9075,39.3059987 127.075498,39.4739971 127.267499,39.7299983 C127.971503,40.7220033 128.827494,41.4979955 129.835499,42.0579983 C130.843504,42.6180011 132.22749,42.8979983 133.987499,42.8979983 C135.971509,42.8979983 137.571493,42.5220021 138.787499,41.7699983 C140.003505,41.0179946 140.611499,39.9380054 140.611499,38.5299983 C140.611499,37.665994 140.363502,36.9620011 139.867499,36.4179983 C139.371497,35.8739956 138.571505,35.4020003 137.467499,35.0019983 C136.363494,34.6019963 134.72351,34.1460009 132.547499,33.6339983 C129.699485,32.9939951 127.755504,32.1140039 126.715499,30.9939983 C125.675494,29.8739927 125.155499,28.450007 125.155499,26.7219983 C125.155499,25.5379924 125.483496,24.4180036 126.139499,23.3619983 C126.795502,22.3059931 127.771493,21.4420017 129.067499,20.7699983 C130.363506,20.097995 131.92349,19.7619983 133.747499,19.7619983 C135.667509,19.7619983 137.291492,20.0899951 138.619499,20.7459983 C139.947506,21.4020016 140.939496,22.161994 141.595499,23.0259983 C142.251502,23.8900027 142.579499,24.5939956 142.579499,25.1379983 C142.579499,25.4259998 142.4755,25.6579975 142.267499,25.8339983 C142.059498,26.0099992 141.811501,26.0979983 141.523499,26.0979983 L140.803499,26.0979983 C140.355497,26.0979983 140.0035,25.8900004 139.747499,25.4739983 C139.107496,24.5139935 138.379503,23.7860008 137.563499,23.2899983 C136.747495,22.7939959 135.475508,22.5459983 133.747499,22.5459983 C131.89149,22.5459983 130.483504,22.9299945 129.523499,23.6979983 C128.563494,24.4660022 128.083499,25.4739921 128.083499,26.7219983 C128.083499,27.4900022 128.275497,28.1299958 128.659499,28.6419983 C129.043501,29.1540009 129.763494,29.6259962 130.819499,30.0579983 C131.875504,30.4900005 133.411489,30.9299961 135.427499,31.3779983 C138.403514,32.0500017 140.499493,32.9459927 141.715499,34.0659983 C142.931505,35.1860039 143.539499,36.6739891 143.539499,38.5299983 C143.539499,39.8420049 143.171503,41.0419929 142.435499,42.1299983 C141.699495,43.2180038 140.611506,44.0819951 139.171499,44.7219983 C137.731492,45.3620015 136.003509,45.6819983 133.987499,45.6819983 Z M156.307499,45.6819983 C153.267484,45.6819983 150.819508,44.6820083 148.963499,42.6819983 C147.10749,40.6819883 146.0515,38.0020151 145.795499,34.6419983 L145.747499,32.7219983 L145.795499,30.8019983 C146.0515,27.4739817 147.09949,24.8020084 148.939499,22.7859983 C150.779508,20.7699883 153.235484,19.7619983 156.307499,19.7619983 C159.635516,19.7619983 162.23549,20.8659873 164.107499,23.0739983 C165.979508,25.2820094 166.915499,28.3059791 166.915499,32.1459983 L166.915499,32.8659983 C166.915499,33.1859999 166.8115,33.4419974 166.603499,33.6339983 C166.395498,33.8259993 166.131501,33.9219983 165.811499,33.9219983 L148.723499,33.9219983 L148.723499,34.4019983 C148.787499,35.9060059 149.131496,37.3059919 149.755499,38.6019983 C150.379502,39.8980048 151.251494,40.9379944 152.371499,41.7219983 C153.491505,42.5060023 154.803492,42.8979983 156.307499,42.8979983 C158.067508,42.8979983 159.499494,42.5540018 160.603499,41.8659983 C161.707505,41.1779949 162.499497,40.4820019 162.979499,39.7779983 C163.267501,39.3939964 163.483498,39.1539988 163.627499,39.0579983 C163.7715,38.9619979 164.035497,38.9139983 164.419499,38.9139983 L165.187499,38.9139983 C165.475501,38.9139983 165.715498,38.9939975 165.907499,39.1539983 C166.0995,39.3139991 166.195499,39.5219971 166.195499,39.7779983 C166.195499,40.4500017 165.771503,41.2579936 164.923499,42.2019983 C164.075495,43.1460031 162.899507,43.9619949 161.395499,44.6499983 C159.891492,45.3380018 158.195509,45.6819983 156.307499,45.6819983 Z M163.987499,31.2339983 L163.987499,31.0419983 C163.987499,28.577986 163.291506,26.5459983 161.899499,24.9459983 C160.507492,23.3459903 158.643511,22.5459983 156.307499,22.5459983 C153.971487,22.5459983 152.123506,23.3459903 150.763499,24.9459983 C149.403492,26.5459983 148.723499,28.577986 148.723499,31.0419983 L148.723499,31.2339983 L163.987499,31.2339983 Z M180.295499,45.6819983 C176.839482,45.6819983 174.287507,44.5540096 172.639499,42.2979983 C170.991491,40.0419871 170.1195,37.2980145 170.023499,34.0659983 L169.975499,32.7219983 L170.023499,31.3779983 C170.1195,28.1459822 170.991491,25.4020096 172.639499,23.1459983 C174.287507,20.8899871 176.839482,19.7619983 180.295499,19.7619983 C183.783517,19.7619983 186.47149,21.0259857 188.359499,23.5539983 L188.359499,12.1779983 C188.359499,11.8579967 188.455498,11.6019993 188.647499,11.4099983 C188.8395,11.2179974 189.095498,11.1219983 189.415499,11.1219983 L190.231499,11.1219983 C190.551501,11.1219983 190.807498,11.2179974 190.999499,11.4099983 C191.1915,11.6019993 191.287499,11.8579967 191.287499,12.1779983 L191.287499,44.1459983 C191.287499,44.4659999 191.1915,44.7219974 190.999499,44.9139983 C190.807498,45.1059993 190.551501,45.2019983 190.231499,45.2019983 L189.415499,45.2019983 C189.095498,45.2019983 188.8395,45.1059993 188.647499,44.9139983 C188.455498,44.7219974 188.359499,44.4659999 188.359499,44.1459983 L188.359499,41.8899983 C186.50349,44.418011 183.815517,45.6819983 180.295499,45.6819983 Z M180.583499,42.8979983 C183.111512,42.8979983 185.015493,42.0580067 186.295499,40.3779983 C187.575506,38.6979899 188.263499,36.7220097 188.359499,34.4499983 C188.391499,34.1299967 188.407499,33.506003 188.407499,32.5779983 C188.407499,31.6499937 188.391499,31.0259999 188.359499,30.7059983 C188.327499,29.3299915 188.023502,28.0260045 187.447499,26.7939983 C186.871496,25.5619922 186.007505,24.5459983 184.855499,23.7459983 C183.703493,22.9459943 182.279508,22.5459983 180.583499,22.5459983 C177.991486,22.5459983 176.095505,23.3699901 174.895499,25.0179983 C173.695493,26.6660066 173.0475,28.7859854 172.951499,31.3779983 L172.903499,32.7219983 C172.903499,35.6980132 173.479493,38.1379888 174.631499,40.0419983 C175.783505,41.9460079 177.767485,42.8979983 180.583499,42.8979983 Z" id="path-1"></path>
    </defs>
    <g id="Page-1" stroke="none" stroke-width="1" fill="none" fill-rule="evenodd">
        <g id="closedloop_light--orange">
            <path d="M15.6427839,54.3546137 C15.4373265,54.2290105 15.3438506,53.9795979 15.4161457,53.7498974 C15.5030749,53.4737006 15.7974467,53.3202689 16.0736435,53.4071981 L16.0736496,53.4071789 C16.2237331,53.4544157 16.3584639,53.4949899 16.4778419,53.5289016 C24.3714927,55.7712476 33.109675,53.7004218 39.2786936,47.7430699 C45.462747,41.7711989 47.8393437,33.0962461 45.8562768,25.1224222 C45.8268308,25.0040211 45.7916068,24.8703043 45.7506347,24.7212636 C45.688054,24.4937974 45.788193,24.2529146 45.9935855,24.1368494 C46.2409726,23.9970536 46.5548463,24.0842734 46.6946422,24.3316605 C51.5385878,32.9036552 50.0429321,44.0209508 42.6130537,51.1959009 C35.1829759,58.3710437 24.0349908,59.4850595 15.6427839,54.3546137 Z M49.7767532,49.6175379 C49.5938076,49.774126 49.3277165,49.7859542 49.1315988,49.6462161 C48.8957826,49.478192 48.8408263,49.1508148 49.0088504,48.9149986 L49.008834,48.9149869 C49.1001372,48.786846 49.1803597,48.6712475 49.2495015,48.5681915 C53.8213714,41.7538065 54.552146,32.8033809 50.7926991,25.0953727 C47.02409,17.3685788 39.5081283,12.4275931 31.3117698,11.8495547 C31.1900643,11.8409716 31.0520073,11.8331509 30.8976001,11.8260615 C30.6619283,11.8152884 30.4637799,11.6456137 30.4168651,11.4144076 C30.3603581,11.1359293 30.5403015,10.86437 30.8187798,10.807863 C40.4680928,8.84988902 50.5790862,13.7077754 55.1069106,22.9911912 C59.6348565,32.2748561 57.2494317,43.2214698 49.7767532,49.6175379 Z M55.4015985,16.0483513 C55.4939893,16.2707313 55.4230119,16.5274541 55.2295094,16.6707917 C54.9968378,16.8431439 54.6685011,16.7942453 54.4961489,16.5615737 L54.4961327,16.5615857 C54.4024777,16.4351534 54.3173271,16.3231354 54.240681,16.2255316 C49.1726013,9.77166416 40.8860625,6.31082266 32.393578,7.50436351 C23.880396,8.70081322 16.8586795,14.322069 13.7761183,21.9386455 C13.7303462,22.0517419 13.6802463,22.1806252 13.6257894,22.3252845 C13.542717,22.5460926 13.3201155,22.6821106 13.085728,22.6552826 C12.8034178,22.6229693 12.6007551,22.3679166 12.6330684,22.0856063 C13.7527261,12.3035172 21.4973194,4.18856045 31.7255471,2.75107678 C41.9540494,1.31355453 51.6277609,6.96491805 55.4015985,16.0483513 Z M25.3562087,0.00167356472 C25.596255,-0.0174761398 25.8184796,0.129359106 25.8950062,0.357684725 C25.9870234,0.632228337 25.8390565,0.929384586 25.5645129,1.02140178 L25.5645193,1.02142084 C25.4153341,1.07142238 25.2824856,1.11778993 25.165974,1.16052347 C17.4618585,3.98619898 11.6097213,10.7977069 10.1205241,19.243364 C8.62769747,27.7096045 11.8039997,36.1247172 18.0952306,41.4100588 C18.1886473,41.4885394 18.2957409,41.5760144 18.4164919,41.6725081 C18.6008221,41.8197481 18.6613953,42.0734865 18.5634506,42.288112 C18.4454802,42.5466197 18.1402845,42.6605477 17.8817768,42.5425773 C8.92445041,38.4548877 3.59987888,28.5816823 5.39344688,18.4098527 C7.18706301,8.23775016 15.5511704,0.783871163 25.3562087,0.00167356472 Z M0.588008591,23.5435919 C0.643974505,23.3093768 0.852294319,23.1434031 1.0930929,23.1411785 C1.38263427,23.1385036 1.61952237,23.3710548 1.62219728,23.6605962 L1.62221738,23.660596 C1.62367091,23.8179309 1.62671664,23.9586056 1.63135458,24.0826202 C1.93802907,32.2828512 6.60774821,39.9534361 14.1798582,43.9795984 C21.7704226,48.015573 30.7552018,47.595143 37.7259575,43.2450872 C37.8294644,43.1804944 37.9457518,43.1056736 38.0748368,43.0206508 C38.2718316,42.890842 38.5318693,42.911643 38.7057237,43.0711168 C38.9151243,43.2631966 38.9291655,43.5886607 38.7370858,43.7980613 C32.0814959,51.0538194 21.0461365,53.0667995 11.9263947,48.2177468 C2.8064081,43.3685639 -1.69800077,33.1104499 0.588008591,23.5435919 Z" id="Combined-Shape" fill="#ED6E00"></path>
            <g id="closed" fill-rule="nonzero" fill="#FFFFFF">
                <use xlink:href="#path-1"></use>
                <use xlink:href="#path-1"></use>
            </g>
            <path d="M200.099499,45.2019983 C199.779498,45.2019983 199.5235,45.1059993 199.331499,44.9139983 C199.139498,44.7219974 199.043499,44.4659999 199.043499,44.1459983 L199.043499,12.1779983 C199.043499,11.8579967 199.139498,11.6019993 199.331499,11.4099983 C199.5235,11.2179974 199.779498,11.1219983 200.099499,11.1219983 L200.915499,11.1219983 C201.235501,11.1219983 201.491498,11.2179974 201.683499,11.4099983 C201.8755,11.6019993 201.971499,11.8579967 201.971499,12.1779983 L201.971499,44.1459983 C201.971499,44.4659999 201.8755,44.7219974 201.683499,44.9139983 C201.491498,45.1059993 201.235501,45.2019983 200.915499,45.2019983 L200.099499,45.2019983 Z M251.267499,54.3219983 C250.947498,54.3219983 250.6915,54.2259993 250.499499,54.0339983 C250.307498,53.8419974 250.211499,53.5859999 250.211499,53.2659983 L250.211499,21.2979983 C250.211499,20.9779967 250.307498,20.7219993 250.499499,20.5299983 C250.6915,20.3379974 250.947498,20.2419983 251.267499,20.2419983 L252.083499,20.2419983 C252.403501,20.2419983 252.659498,20.3379974 252.851499,20.5299983 C253.0435,20.7219993 253.139499,20.9779967 253.139499,21.2979983 L253.139499,23.5539983 C254.995508,21.0259857 257.683482,19.7619983 261.203499,19.7619983 C264.659516,19.7619983 267.211499,20.8579874 268.859499,23.0499983 C270.507507,25.2420093 271.379499,27.9379823 271.475499,31.1379983 C271.507499,31.4579999 271.523499,31.9859947 271.523499,32.7219983 C271.523499,33.458002 271.507499,33.9859967 271.475499,34.3059983 C271.379499,37.5060143 270.507507,40.2019874 268.859499,42.3939983 C267.211499,44.5860093 264.659516,45.6819983 261.203499,45.6819983 C257.715482,45.6819983 255.027509,44.418011 253.139499,41.8899983 L253.139499,53.2659983 C253.139499,53.5859999 253.0435,53.8419974 252.851499,54.0339983 C252.659498,54.2259993 252.403501,54.3219983 252.083499,54.3219983 L251.267499,54.3219983 Z M260.915499,42.8979983 C263.507512,42.8979983 265.403493,42.0740066 266.603499,40.4259983 C267.803505,38.7779901 268.451499,36.6580113 268.547499,34.0659983 C268.579499,33.7459967 268.595499,33.2980012 268.595499,32.7219983 C268.595499,29.7459835 268.019505,27.3060079 266.867499,25.4019983 C265.715493,23.4979888 263.731513,22.5459983 260.915499,22.5459983 C258.387486,22.5459983 256.483506,23.3859899 255.203499,25.0659983 C253.923493,26.7460067 253.2355,28.721987 253.139499,30.9939983 L253.091499,32.8659983 L253.139499,34.7379983 C253.171499,36.1140052 253.475496,37.4179922 254.051499,38.6499983 C254.627502,39.8820045 255.491493,40.8979943 256.643499,41.6979983 C257.795505,42.4980023 259.219491,42.8979983 260.915499,42.8979983 Z" id="loop" fill="#FFFFFF" fill-rule="nonzero"></path>
            <path d="M226.091499,25.3030922 C226.532888,24.3904513 227.092888,23.5594214 227.771499,22.8099983 C229.611508,20.7779882 232.195482,19.7619983 235.523499,19.7619983 C238.851516,19.7619983 241.43549,20.7779882 243.275499,22.8099983 C245.115508,24.8420085 246.083499,27.4739822 246.179499,30.7059983 C246.211499,31.0259999 246.227499,31.6979932 246.227499,32.7219983 C246.227499,33.7460035 246.211499,34.4179967 246.179499,34.7379983 C246.083499,37.9700145 245.115508,40.6019882 243.275499,42.6339983 C241.43549,44.6660085 238.851516,45.6819983 235.523499,45.6819983 C232.195482,45.6819983 229.611508,44.6660085 227.771499,42.6339983 C227.092888,41.8845753 226.532888,41.0535453 226.091499,40.1409045 C225.65011,41.0535453 225.090111,41.8845753 224.411499,42.6339983 C222.57149,44.6660085 219.987516,45.6819983 216.659499,45.6819983 C213.331482,45.6819983 210.747508,44.6660085 208.907499,42.6339983 C207.06749,40.6019882 206.0995,37.9700145 206.003499,34.7379983 L205.955499,32.7219983 L206.003499,30.7059983 C206.0995,27.4739822 207.06749,24.8420085 208.907499,22.8099983 C210.747508,20.7779882 213.331482,19.7619983 216.659499,19.7619983 C219.987516,19.7619983 222.57149,20.7779882 224.411499,22.8099983 C225.090111,23.5594214 225.65011,24.3904513 226.091499,25.3030922 Z M216.659499,42.8979983 C218.93151,42.8979983 220.763492,42.1700056 222.155499,40.7139983 C223.547506,39.2579911 224.291499,37.1860118 224.387499,34.4979983 C224.419499,34.1779967 224.435499,33.5860027 224.435499,32.7219983 C224.435499,31.857994 224.419499,31.2659999 224.387499,30.9459983 C224.291499,28.2579849 223.547506,26.1860056 222.155499,24.7299983 C220.763492,23.2739911 218.93151,22.5459983 216.659499,22.5459983 C214.387488,22.5459983 212.555506,23.2739911 211.163499,24.7299983 C209.771492,26.1860056 209.0275,28.2579849 208.931499,30.9459983 L208.883499,32.7219983 L208.931499,34.4979983 C209.0275,37.1860118 209.771492,39.2579911 211.163499,40.7139983 C212.555506,42.1700056 214.387488,42.8979983 216.659499,42.8979983 Z M235.523499,42.8979983 C237.79551,42.8979983 239.627492,42.1700056 241.019499,40.7139983 C242.411506,39.2579911 243.155499,37.1860118 243.251499,34.4979983 C243.283499,34.1779967 243.299499,33.5860027 243.299499,32.7219983 C243.299499,31.857994 243.283499,31.2659999 243.251499,30.9459983 C243.155499,28.2579849 242.411506,26.1860056 241.019499,24.7299983 C239.627492,23.2739911 237.79551,22.5459983 235.523499,22.5459983 C233.251488,22.5459983 231.419506,23.2739911 230.027499,24.7299983 C228.635492,26.1860056 227.8915,28.2579849 227.795499,30.9459983 L227.747499,32.7219983 L227.795499,34.4979983 C227.8915,37.1860118 228.635492,39.2579911 230.027499,40.7139983 C231.419506,42.1700056 233.251488,42.8979983 235.523499,42.8979983 Z" id="Combined-Shape" fill="#ED6E00"></path>
        </g>
    </g>
</svg>