<?xml version="1.0" encoding="UTF-8"?>
<svg width="272px" height="58px" viewBox="0 0 272 58" version="1.1" xmlns="http://www.w3.org/2000/svg" xmlns:xlink="http://www.w3.org/1999/xlink">
    <!-- Generator: Sketch 55.2 (78181) - https://sketchapp.com -->
    <title>svg/closedloop_light--gradient</title>
    <desc>Created with Sketch.</desc>
    <defs>
        <radialGradient cx="3.08786186%" cy="17.25234%" fx="3.08786186%" fy="17.25234%" r="94.5245433%" gradientTransform="translate(0.030879,0.172523),scale(1.000000,0.997757),translate(-0.030879,-0.172523)" id="radialGradient-1">
            <stop stop-color="#EB7125" offset="0%"></stop>
            <stop stop-color="#E56C27" offset="20.68%"></stop>
            <stop stop-color="#D95D2D" offset="45.03%"></stop>
            <stop stop-color="#C84734" offset="71.24%"></stop>
            <stop stop-color="#B2233A" offset="98.6%"></stop>
            <stop stop-color="#B0213A" offset="100%"></stop>
        </radialGradient>
        <path d="M10.656,34.56 C7.32798336,34.56 4.75200912,33.5920097 2.928,31.656 C1.10399088,29.7199903 0.14400048,27.0080174 0.048,23.52 L0,21.6 L0.048,19.68 C0.14400048,16.1919826 1.10399088,13.4800097 2.928,11.544 C4.75200912,9.60799032 7.32798336,8.64 10.656,8.64 C12.7680106,8.64 14.5679926,9.01599624 16.056,9.768 C17.5440074,10.5200038 18.6559963,11.4799942 19.392,12.648 C20.1280037,13.8160058 20.5279997,15.0239938 20.592,16.272 C20.6240002,16.5600014 20.5280011,16.807999 20.304,17.016 C20.0799989,17.224001 19.8240014,17.328 19.536,17.328 L18.864,17.328 C18.5439984,17.328 18.3120007,17.2560007 18.168,17.112 C18.0239993,16.9679993 17.8720008,16.7040019 17.712,16.32 C17.0719968,14.5599912 16.1760058,13.3040038 15.024,12.552 C13.8719942,11.7999962 12.4160088,11.424 10.656,11.424 C8.35198848,11.424 6.5200068,12.119993 5.16,13.512 C3.7999932,14.904007 3.07200048,17.0399856 2.976,19.92 L2.928,21.6 L2.976,23.28 C3.07200048,26.1600144 3.7999932,28.295993 5.16,29.688 C6.5200068,31.080007 8.35198848,31.776 10.656,31.776 C12.4160088,31.776 13.8719942,31.4000038 15.024,30.648 C16.1760058,29.8959962 17.0719968,28.64 17.712,26.88 C17.8720008,26.4959981 18.0239993,26.2320007 18.168,26.088 C18.3120007,25.9439993 18.5439984,25.872 18.864,25.872 L19.536,25.872 C19.8240014,25.872 20.0799989,25.975999 20.304,26.184 C20.5280011,26.392001 20.6240002,26.64 20.592,26.928 C20.5279997,28.1760062 20.1280037,29.3839942 19.392,30.552 C18.6559963,31.7200058 17.5440074,32.6799962 16.056,33.432 C14.5679926,34.1840038 12.7680106,34.56 10.656,34.56 Z M25.392,34.08 C25.0719984,34.08 24.816001,33.984001 24.624,33.792 C24.431999,33.599999 24.336,33.3440016 24.336,33.024 L24.336,1.056 C24.336,0.7359984 24.431999,0.48000096 24.624,0.288 C24.816001,0.09599904 25.0719984,0 25.392,0 L26.208,0 C26.5280016,0 26.783999,0.09599904 26.976,0.288 C27.168001,0.48000096 27.264,0.7359984 27.264,1.056 L27.264,33.024 C27.264,33.3440016 27.168001,33.599999 26.976,33.792 C26.783999,33.984001 26.5280016,34.08 26.208,34.08 L25.392,34.08 Z M41.292,34.56 C37.9639834,34.56 35.3800092,33.5440102 33.54,31.512 C31.6999908,29.4799898 30.7320005,26.8480162 30.636,23.616 L30.588,21.6 L30.636,19.584 C30.7320005,16.3519838 31.6999908,13.7200102 33.54,11.688 C35.3800092,9.65598984 37.9639834,8.64 41.292,8.64 C44.6200166,8.64 47.2039908,9.65598984 49.044,11.688 C50.8840092,13.7200102 51.8519995,16.3519838 51.948,19.584 C51.9800002,19.9040016 51.996,20.5759949 51.996,21.6 C51.996,22.6240051 51.9800002,23.2959984 51.948,23.616 C51.8519995,26.8480162 50.8840092,29.4799898 49.044,31.512 C47.2039908,33.5440102 44.6200166,34.56 41.292,34.56 Z M41.292,31.776 C43.5640114,31.776 45.395993,31.0480073 46.788,29.592 C48.180007,28.1359927 48.9239995,26.0640134 49.02,23.376 C49.0520002,23.0559984 49.068,22.4640043 49.068,21.6 C49.068,20.7359957 49.0520002,20.1440016 49.02,19.824 C48.9239995,17.1359866 48.180007,15.0640073 46.788,13.608 C45.395993,12.1519927 43.5640114,11.424 41.292,11.424 C39.0199886,11.424 37.188007,12.1519927 35.796,13.608 C34.403993,15.0640073 33.6600005,17.1359866 33.564,19.824 L33.516,21.6 L33.564,23.376 C33.6600005,26.0640134 34.403993,28.1359927 35.796,29.592 C37.188007,31.0480073 39.0199886,31.776 41.292,31.776 Z M63.192,34.56 C61.1119896,34.56 59.3600071,34.2080035 57.936,33.504 C56.5119929,32.7999965 55.4400036,32.0000045 54.72,31.104 C53.9999964,30.2079955 53.64,29.4880027 53.64,28.944 C53.64,28.6559986 53.7519989,28.4240009 53.976,28.248 C54.2000011,28.0719991 54.4399987,27.984 54.696,27.984 L55.416,27.984 C55.64,27.984 55.8239993,28.0239996 55.968,28.104 C56.1120007,28.1840004 56.279999,28.3519987 56.472,28.608 C57.1760035,29.600005 58.031995,30.3759972 59.04,30.936 C60.048005,31.4960028 61.4319912,31.776 63.192,31.776 C65.1760099,31.776 66.7759939,31.4000038 67.992,30.648 C69.2080061,29.8959962 69.816,28.816007 69.816,27.408 C69.816,26.5439957 69.5680025,25.8400027 69.072,25.296 C68.5759975,24.7519973 67.7760055,24.280002 66.672,23.88 C65.5679945,23.479998 63.9280109,23.0240026 61.752,22.512 C58.9039858,21.8719968 56.9600052,20.9920056 55.92,19.872 C54.8799948,18.7519944 54.36,17.3280086 54.36,15.6 C54.36,14.4159941 54.6879967,13.2960053 55.344,12.24 C56.0000033,11.1839947 56.9759935,10.3200034 58.272,9.648 C59.5680065,8.97599664 61.1279909,8.64 62.952,8.64 C64.8720096,8.64 66.4959934,8.96799672 67.824,9.624 C69.1520066,10.2800033 70.1439967,11.0399957 70.8,11.904 C71.4560033,12.7680043 71.784,13.4719973 71.784,14.016 C71.784,14.3040014 71.680001,14.5359991 71.472,14.712 C71.263999,14.8880009 71.0160014,14.976 70.728,14.976 L70.008,14.976 C69.5599978,14.976 69.2080013,14.7680021 68.952,14.352 C68.3119968,13.3919952 67.5840041,12.6640025 66.768,12.168 C65.9519959,11.6719975 64.6800086,11.424 62.952,11.424 C61.0959907,11.424 59.6880048,11.8079962 58.728,12.576 C57.7679952,13.3440038 57.288,14.3519938 57.288,15.6 C57.288,16.3680038 57.4799981,17.0079974 57.864,17.52 C58.2480019,18.0320026 58.9679947,18.5039978 60.024,18.936 C61.0800053,19.3680022 62.6159899,19.8079978 64.632,20.256 C67.6080149,20.9280034 69.7039939,21.8239944 70.92,22.944 C72.1360061,24.0640056 72.744,25.5519907 72.744,27.408 C72.744,28.7200066 72.3760037,29.9199946 71.64,31.008 C70.9039963,32.0960054 69.8160072,32.9599968 68.376,33.6 C66.9359928,34.2400032 65.2080101,34.56 63.192,34.56 Z M85.512,34.56 C82.4719848,34.56 80.0240093,33.56001 78.168,31.56 C76.3119907,29.55999 75.2560013,26.8800168 75,23.52 L74.952,21.6 L75,19.68 C75.2560013,16.3519834 76.3039908,13.6800101 78.144,11.664 C79.9840092,9.64798992 82.4399846,8.64 85.512,8.64 C88.8400166,8.64 91.4399906,9.74398896 93.312,11.952 C95.1840094,14.160011 96.12,17.1839808 96.12,21.024 L96.12,21.744 C96.12,22.0640016 96.016001,22.319999 95.808,22.512 C95.599999,22.704001 95.3360016,22.8 95.016,22.8 L77.928,22.8 L77.928,23.28 C77.9920003,24.7840075 78.3359969,26.1839935 78.96,27.48 C79.5840031,28.7760065 80.4559944,29.8159961 81.576,30.6 C82.6960056,31.3840039 84.0079925,31.776 85.512,31.776 C87.2720088,31.776 88.7039945,31.4320034 89.808,30.744 C90.9120055,30.0559966 91.7039976,29.3600035 92.184,28.656 C92.4720014,28.2719981 92.6879993,28.0320005 92.832,27.936 C92.9760007,27.8399995 93.2399981,27.792 93.624,27.792 L94.392,27.792 C94.6800014,27.792 94.919999,27.8719992 95.112,28.032 C95.304001,28.1920008 95.4,28.3999987 95.4,28.656 C95.4,29.3280034 94.9760042,30.1359953 94.128,31.08 C93.2799958,32.0240047 92.1040075,32.8399966 90.6,33.528 C89.0959925,34.2160034 87.4000094,34.56 85.512,34.56 Z M93.192,20.112 L93.192,19.92 C93.192,17.4559877 92.496007,15.424 91.104,13.824 C89.711993,12.223992 87.8480117,11.424 85.512,11.424 C83.1759883,11.424 81.3280068,12.223992 79.968,13.824 C78.6079932,15.424 77.928,17.4559877 77.928,19.92 L77.928,20.112 L93.192,20.112 Z M109.5,34.56 C106.043983,34.56 103.492008,33.4320113 101.844,31.176 C100.195992,28.9199887 99.3240005,26.1760162 99.228,22.944 L99.18,21.6 L99.228,20.256 C99.3240005,17.0239838 100.195992,14.2800113 101.844,12.024 C103.492008,9.76798872 106.043983,8.64 109.5,8.64 C112.988017,8.64 115.675991,9.90398736 117.564,12.432 L117.564,1.056 C117.564,0.7359984 117.659999,0.48000096 117.852,0.288 C118.044001,0.09599904 118.299998,0 118.62,0 L119.436,0 C119.756002,0 120.011999,0.09599904 120.204,0.288 C120.396001,0.48000096 120.492,0.7359984 120.492,1.056 L120.492,33.024 C120.492,33.3440016 120.396001,33.599999 120.204,33.792 C120.011999,33.984001 119.756002,34.08 119.436,34.08 L118.62,34.08 C118.299998,34.08 118.044001,33.984001 117.852,33.792 C117.659999,33.599999 117.564,33.3440016 117.564,33.024 L117.564,30.768 C115.707991,33.2960126 113.020018,34.56 109.5,34.56 Z M109.788,31.776 C112.316013,31.776 114.219994,30.9360084 115.5,29.256 C116.780006,27.5759916 117.468,25.6000114 117.564,23.328 C117.596,23.0079984 117.612,22.3840046 117.612,21.456 C117.612,20.5279954 117.596,19.9040016 117.564,19.584 C117.532,18.2079931 117.228003,16.9040062 116.652,15.672 C116.075997,14.4399938 115.212006,13.424 114.06,12.624 C112.907994,11.823996 111.484008,11.424 109.788,11.424 C107.195987,11.424 105.300006,12.2479918 104.1,13.896 C102.899994,15.5440082 102.252,17.663987 102.156,20.256 L102.108,21.6 C102.108,24.5760149 102.683994,27.0159905 103.836,28.92 C104.988006,30.8240095 106.971986,31.776 109.788,31.776 Z" id="path-2"></path>
        <radialGradient cx="3.08786186%" cy="17.25234%" fx="3.08786186%" fy="17.25234%" r="146.863133%" gradientTransform="translate(0.030879,0.172523),scale(0.643623,1.000000),translate(-0.030879,-0.172523)" id="radialGradient-3">
            <stop stop-color="#EB7125" offset="0%"></stop>
            <stop stop-color="#B0213A" offset="100%"></stop>
        </radialGradient>
    </defs>
    <g id="Page-1" stroke="none" stroke-width="1" fill="none" fill-rule="evenodd">
        <g id="closedloop_light--gradient">
            <path d="M15.6427839,54.3546137 C15.4373265,54.2290105 15.3438506,53.9795979 15.4161457,53.7498974 C15.5030749,53.4737006 15.7974467,53.3202689 16.0736435,53.4071981 L16.0736496,53.4071789 C16.2237331,53.4544157 16.3584639,53.4949899 16.4778419,53.5289016 C24.3714927,55.7712476 33.109675,53.7004218 39.2786936,47.7430699 C45.462747,41.7711989 47.8393437,33.0962461 45.8562768,25.1224222 C45.8268308,25.0040211 45.7916068,24.8703043 45.7506347,24.7212636 C45.688054,24.4937974 45.788193,24.2529146 45.9935855,24.1368494 C46.2409726,23.9970536 46.5548463,24.0842734 46.6946422,24.3316605 C51.5385878,32.9036552 50.0429321,44.0209508 42.6130537,51.1959009 C35.1829759,58.3710437 24.0349908,59.4850595 15.6427839,54.3546137 Z M49.7767532,49.6175379 C49.5938076,49.774126 49.3277165,49.7859542 49.1315988,49.6462161 C48.8957826,49.478192 48.8408263,49.1508148 49.0088504,48.9149986 L49.008834,48.9149869 C49.1001372,48.786846 49.1803597,48.6712475 49.2495015,48.5681915 C53.8213714,41.7538065 54.552146,32.8033809 50.7926991,25.0953727 C47.02409,17.3685788 39.5081283,12.4275931 31.3117698,11.8495547 C31.1900643,11.8409716 31.0520073,11.8331509 30.8976001,11.8260615 C30.6619283,11.8152884 30.4637799,11.6456137 30.4168651,11.4144076 C30.3603581,11.1359293 30.5403015,10.86437 30.8187798,10.807863 C40.4680928,8.84988902 50.5790862,13.7077754 55.1069106,22.9911912 C59.6348565,32.2748561 57.2494317,43.2214698 49.7767532,49.6175379 Z M55.4015985,16.0483513 C55.4939893,16.2707313 55.4230119,16.5274541 55.2295094,16.6707917 C54.9968378,16.8431439 54.6685011,16.7942453 54.4961489,16.5615737 L54.4961327,16.5615857 C54.4024777,16.4351534 54.3173271,16.3231354 54.240681,16.2255316 C49.1726013,9.77166416 40.8860625,6.31082266 32.393578,7.50436351 C23.880396,8.70081322 16.8586795,14.322069 13.7761183,21.9386455 C13.7303462,22.0517419 13.6802463,22.1806252 13.6257894,22.3252845 C13.542717,22.5460926 13.3201155,22.6821106 13.085728,22.6552826 C12.8034178,22.6229693 12.6007551,22.3679166 12.6330684,22.0856063 C13.7527261,12.3035172 21.4973194,4.18856045 31.7255471,2.75107678 C41.9540494,1.31355453 51.6277609,6.96491805 55.4015985,16.0483513 Z M25.3562087,0.00167356472 C25.596255,-0.0174761398 25.8184796,0.129359106 25.8950062,0.357684725 C25.9870234,0.632228337 25.8390565,0.929384586 25.5645129,1.02140178 L25.5645193,1.02142084 C25.4153341,1.07142238 25.2824856,1.11778993 25.165974,1.16052347 C17.4618585,3.98619898 11.6097213,10.7977069 10.1205241,19.243364 C8.62769747,27.7096045 11.8039997,36.1247172 18.0952306,41.4100588 C18.1886473,41.4885394 18.2957409,41.5760144 18.4164919,41.6725081 C18.6008221,41.8197481 18.6613953,42.0734865 18.5634506,42.288112 C18.4454802,42.5466197 18.1402845,42.6605477 17.8817768,42.5425773 C8.92445041,38.4548877 3.59987888,28.5816823 5.39344688,18.4098527 C7.18706301,8.23775016 15.5511704,0.783871163 25.3562087,0.00167356472 Z M0.588008591,23.5435919 C0.643974505,23.3093768 0.852294319,23.1434031 1.0930929,23.1411785 C1.38263427,23.1385036 1.61952237,23.3710548 1.62219728,23.6605962 L1.62221738,23.660596 C1.62367091,23.8179309 1.62671664,23.9586056 1.63135458,24.0826202 C1.93802907,32.2828512 6.60774821,39.9534361 14.1798582,43.9795984 C21.7704226,48.015573 30.7552018,47.595143 37.7259575,43.2450872 C37.8294644,43.1804944 37.9457518,43.1056736 38.0748368,43.0206508 C38.2718316,42.890842 38.5318693,42.911643 38.7057237,43.0711168 C38.9151243,43.2631966 38.9291655,43.5886607 38.7370858,43.7980613 C32.0814959,51.0538194 21.0461365,53.0667995 11.9263947,48.2177468 C2.8064081,43.3685639 -1.69800077,33.1104499 0.588008591,23.5435919 Z" id="circle" fill="url(#radialGradient-1)"></path>
            <g id="text" transform="translate(70.795499, 11.121998)">
                <g id="closed" fill-rule="nonzero" fill="#FFFFFF">
                    <use xlink:href="#path-2"></use>
                    <use xlink:href="#path-2"></use>
                </g>
                <path d="M129.304,34.08 C128.983998,34.08 128.728001,33.984001 128.536,33.792 C128.343999,33.599999 128.248,33.3440016 128.248,33.024 L128.248,1.056 C128.248,0.7359984 128.343999,0.48000096 128.536,0.288 C128.728001,0.09599904 128.983998,1.13686838e-13 129.304,1.13686838e-13 L130.12,1.13686838e-13 C130.440002,1.13686838e-13 130.695999,0.09599904 130.888,0.288 C131.080001,0.48000096 131.176,0.7359984 131.176,1.056 L131.176,33.024 C131.176,33.3440016 131.080001,33.599999 130.888,33.792 C130.695999,33.984001 130.440002,34.08 130.12,34.08 L129.304,34.08 Z M180.472,43.2 C180.151998,43.2 179.896001,43.104001 179.704,42.912 C179.511999,42.719999 179.416,42.4640016 179.416,42.144 L179.416,10.176 C179.416,9.8559984 179.511999,9.60000096 179.704,9.408 C179.896001,9.21599904 180.151998,9.12 180.472,9.12 L181.288,9.12 C181.608002,9.12 181.863999,9.21599904 182.056,9.408 C182.248001,9.60000096 182.344,9.8559984 182.344,10.176 L182.344,12.432 C184.200009,9.90398736 186.887982,8.64 190.408,8.64 C193.864017,8.64 196.416,9.73598904 198.064,11.928 C199.712008,14.120011 200.584,16.815984 200.68,20.016 C200.712,20.3360016 200.728,20.8639963 200.728,21.6 C200.728,22.3360037 200.712,22.8639984 200.68,23.184 C200.584,26.384016 199.712008,29.079989 198.064,31.272 C196.416,33.464011 193.864017,34.56 190.408,34.56 C186.919983,34.56 184.232009,33.2960126 182.344,30.768 L182.344,42.144 C182.344,42.4640016 182.248001,42.719999 182.056,42.912 C181.863999,43.104001 181.608002,43.2 181.288,43.2 L180.472,43.2 Z M190.12,31.776 C192.712013,31.776 194.607994,30.9520082 195.808,29.304 C197.008006,27.6559918 197.656,25.536013 197.752,22.944 C197.784,22.6239984 197.8,22.1760029 197.8,21.6 C197.8,18.6239851 197.224006,16.1840095 196.072,14.28 C194.919994,12.3759905 192.936014,11.424 190.12,11.424 C187.591987,11.424 185.688006,12.2639916 184.408,13.944 C183.127994,15.6240084 182.44,17.5999886 182.344,19.872 L182.296,21.744 L182.344,23.616 C182.376,24.9920069 182.679997,26.2959938 183.256,27.528 C183.832003,28.7600062 184.695994,29.775996 185.848,30.576 C187.000006,31.376004 188.423992,31.776 190.12,31.776 Z" id="loop" fill="#FFFFFF" fill-rule="nonzero"></path>
                <path d="M155.296,14.1810939 C155.737389,13.268453 156.297389,12.437423 156.976,11.688 C158.816009,9.65598984 161.399983,8.64 164.728,8.64 C168.056017,8.64 170.639991,9.65598984 172.48,11.688 C174.320009,13.7200102 175.288,16.3519838 175.384,19.584 C175.416,19.9040016 175.432,20.5759949 175.432,21.6 C175.432,22.6240051 175.416,23.2959984 175.384,23.616 C175.288,26.8480162 174.320009,29.4799898 172.48,31.512 C170.639991,33.5440102 168.056017,34.56 164.728,34.56 C161.399983,34.56 158.816009,33.5440102 156.976,31.512 C156.297389,30.762577 155.737389,29.931547 155.296,29.0189061 C154.854611,29.931547 154.294611,30.762577 153.616,31.512 C151.775991,33.5440102 149.192017,34.56 145.864,34.56 C142.535983,34.56 139.952009,33.5440102 138.112,31.512 C136.271991,29.4799898 135.304,26.8480162 135.208,23.616 L135.16,21.6 L135.208,19.584 C135.304,16.3519838 136.271991,13.7200102 138.112,11.688 C139.952009,9.65598984 142.535983,8.64 145.864,8.64 C149.192017,8.64 151.775991,9.65598984 153.616,11.688 C154.294611,12.437423 154.854611,13.268453 155.296,14.1810939 Z M145.864,31.776 C148.136011,31.776 149.967993,31.0480073 151.36,29.592 C152.752007,28.1359927 153.496,26.0640134 153.592,23.376 C153.624,23.0559984 153.64,22.4640043 153.64,21.6 C153.64,20.7359957 153.624,20.1440016 153.592,19.824 C153.496,17.1359866 152.752007,15.0640073 151.36,13.608 C149.967993,12.1519927 148.136011,11.424 145.864,11.424 C143.591989,11.424 141.760007,12.1519927 140.368,13.608 C138.975993,15.0640073 138.232,17.1359866 138.136,19.824 L138.088,21.6 L138.136,23.376 C138.232,26.0640134 138.975993,28.1359927 140.368,29.592 C141.760007,31.0480073 143.591989,31.776 145.864,31.776 Z M164.728,31.776 C167.000011,31.776 168.831993,31.0480073 170.224,29.592 C171.616007,28.1359927 172.36,26.0640134 172.456,23.376 C172.488,23.0559984 172.504,22.4640043 172.504,21.6 C172.504,20.7359957 172.488,20.1440016 172.456,19.824 C172.36,17.1359866 171.616007,15.0640073 170.224,13.608 C168.831993,12.1519927 167.000011,11.424 164.728,11.424 C162.455989,11.424 160.624007,12.1519927 159.232,13.608 C157.839993,15.0640073 157.096,17.1359866 157,19.824 L156.952,21.6 L157,23.376 C157.096,26.0640134 157.839993,28.1359927 159.232,29.592 C160.624007,31.0480073 162.455989,31.776 164.728,31.776 Z" id="Combined-Shape" fill="url(#radialGradient-3)"></path>
            </g>
        </g>
    </g>
</svg>